<mxfile host="app.diagrams.net" modified="2023-10-19T10:14:50.545Z" agent="Mozilla/5.0 (Windows NT 10.0; Win64; x64) AppleWebKit/537.36 (KHTML, like Gecko) Chrome/118.0.0.0 Safari/537.36" etag="t3nSnwrJR1kpHMsW4gAk" version="22.0.5" type="github">
  <diagram name="Page-1" id="aurkfMA4m3D6PzI0fSZA">
    <mxGraphModel dx="954" dy="610" grid="1" gridSize="10" guides="1" tooltips="1" connect="1" arrows="1" fold="1" page="1" pageScale="1" pageWidth="850" pageHeight="1100" math="0" shadow="0">
      <root>
        <mxCell id="0" />
        <mxCell id="1" parent="0" />
        <mxCell id="tl2AlbjSF0EqfrfDkzAo-2" value="&lt;span style=&quot;font-size: 18px;&quot;&gt;Main&lt;/span&gt;" style="ellipse;whiteSpace=wrap;html=1;" vertex="1" parent="1">
          <mxGeometry x="110" y="130" width="70" height="50" as="geometry" />
        </mxCell>
        <mxCell id="tl2AlbjSF0EqfrfDkzAo-3" value="" style="line;strokeWidth=2;html=1;" vertex="1" parent="1">
          <mxGeometry x="180" y="150" width="470" height="10" as="geometry" />
        </mxCell>
        <mxCell id="tl2AlbjSF0EqfrfDkzAo-4" value="Submain" style="ellipse;whiteSpace=wrap;html=1;" vertex="1" parent="1">
          <mxGeometry x="170" y="260" width="90" height="40" as="geometry" />
        </mxCell>
        <mxCell id="tl2AlbjSF0EqfrfDkzAo-7" value="" style="edgeStyle=elbowEdgeStyle;elbow=horizontal;endArrow=classic;html=1;curved=0;rounded=0;endSize=8;startSize=8;exitX=1;exitY=0;exitDx=0;exitDy=0;entryX=0.404;entryY=1;entryDx=0;entryDy=0;entryPerimeter=0;" edge="1" parent="1" source="tl2AlbjSF0EqfrfDkzAo-4" target="tl2AlbjSF0EqfrfDkzAo-3">
          <mxGeometry width="50" height="50" relative="1" as="geometry">
            <mxPoint x="230.00000000000003" y="279" as="sourcePoint" />
            <mxPoint x="321.03" y="170" as="targetPoint" />
            <Array as="points">
              <mxPoint x="321.03" y="200" />
              <mxPoint x="381.03" y="190" />
              <mxPoint x="301.03" y="170" />
            </Array>
          </mxGeometry>
        </mxCell>
        <mxCell id="tl2AlbjSF0EqfrfDkzAo-8" value="feature1" style="ellipse;whiteSpace=wrap;html=1;" vertex="1" parent="1">
          <mxGeometry x="180" y="360" width="80" height="40" as="geometry" />
        </mxCell>
        <mxCell id="tl2AlbjSF0EqfrfDkzAo-9" value="" style="edgeStyle=segmentEdgeStyle;endArrow=classic;html=1;curved=0;rounded=0;endSize=8;startSize=8;exitX=0.75;exitY=0;exitDx=0;exitDy=0;exitPerimeter=0;" edge="1" parent="1">
          <mxGeometry width="50" height="50" relative="1" as="geometry">
            <mxPoint x="250" y="390" as="sourcePoint" />
            <mxPoint x="310" y="260" as="targetPoint" />
            <Array as="points">
              <mxPoint x="420" y="390" />
              <mxPoint x="420" y="290" />
              <mxPoint x="350" y="290" />
              <mxPoint x="350" y="300" />
            </Array>
          </mxGeometry>
        </mxCell>
        <mxCell id="tl2AlbjSF0EqfrfDkzAo-10" value="live production" style="whiteSpace=wrap;html=1;aspect=fixed;" vertex="1" parent="1">
          <mxGeometry x="650" y="95" width="120" height="120" as="geometry" />
        </mxCell>
        <mxCell id="tl2AlbjSF0EqfrfDkzAo-12" value="v1" style="rounded=1;whiteSpace=wrap;html=1;" vertex="1" parent="1">
          <mxGeometry x="105" y="190" width="80" height="20" as="geometry" />
        </mxCell>
        <mxCell id="tl2AlbjSF0EqfrfDkzAo-13" value="v1" style="rounded=0;whiteSpace=wrap;html=1;" vertex="1" parent="1">
          <mxGeometry x="170" y="310" width="90" height="20" as="geometry" />
        </mxCell>
        <mxCell id="tl2AlbjSF0EqfrfDkzAo-14" value="v1" style="rounded=0;whiteSpace=wrap;html=1;" vertex="1" parent="1">
          <mxGeometry x="170" y="410" width="90" height="20" as="geometry" />
        </mxCell>
        <mxCell id="tl2AlbjSF0EqfrfDkzAo-15" value="v1" style="rounded=0;whiteSpace=wrap;html=1;" vertex="1" parent="1">
          <mxGeometry x="690" y="230" width="50" height="20" as="geometry" />
        </mxCell>
      </root>
    </mxGraphModel>
  </diagram>
</mxfile>
